G04 #@! TF.FileFunction,Copper,L2,Bot,Signal*
%FSLAX46Y46*%
G04 Gerber Fmt 4.6, Leading zero omitted, Abs format (unit mm)*
G04 Created by KiCad (PCBNEW 4.0.7) date 2018 January 31, Wednesday 20:45:58*
%MOMM*%
%LPD*%
G01*
G04 APERTURE LIST*
%ADD10C,0.100000*%
%ADD11R,1.000000X1.000000*%
%ADD12O,1.000000X1.000000*%
%ADD13R,1.700000X1.700000*%
%ADD14O,1.700000X1.700000*%
%ADD15C,0.508000*%
%ADD16C,0.152400*%
G04 APERTURE END LIST*
D10*
D11*
X147460000Y-102540000D03*
D12*
X146190000Y-102540000D03*
X147460000Y-101270000D03*
X146190000Y-101270000D03*
X147460000Y-100000000D03*
X146190000Y-100000000D03*
X147460000Y-98730000D03*
X146190000Y-98730000D03*
X147460000Y-97460000D03*
X146190000Y-97460000D03*
D13*
X156350000Y-102540000D03*
D14*
X153810000Y-102540000D03*
X156350000Y-100000000D03*
X153810000Y-100000000D03*
X156350000Y-97460000D03*
X153810000Y-97460000D03*
D15*
X147460000Y-100000000D02*
X150000000Y-100000000D01*
X147460000Y-101270000D02*
X149365000Y-101270000D01*
X149365000Y-101270000D02*
X150000000Y-100635000D01*
X150000000Y-100635000D02*
X150000000Y-100000000D01*
X150000000Y-100000000D02*
X150000000Y-99365000D01*
X150000000Y-99365000D02*
X150635000Y-98730000D01*
X150635000Y-98730000D02*
X155080000Y-98730000D01*
X155080000Y-98730000D02*
X156350000Y-97460000D01*
X146190000Y-101270000D02*
X145555000Y-101270000D01*
X151905000Y-100000000D02*
X153810000Y-100000000D01*
X151270000Y-100635000D02*
X151905000Y-100000000D01*
X151270000Y-103175000D02*
X151270000Y-100635000D01*
X150635000Y-103810000D02*
X151270000Y-103175000D01*
X145555000Y-103810000D02*
X150635000Y-103810000D01*
X144920000Y-103175000D02*
X145555000Y-103810000D01*
X144920000Y-101905000D02*
X144920000Y-103175000D01*
X145555000Y-101270000D02*
X144920000Y-101905000D01*
X146190000Y-100000000D02*
X145555000Y-100000000D01*
X153810000Y-96190000D02*
X153810000Y-97460000D01*
X153175000Y-95555000D02*
X153810000Y-96190000D01*
X145555000Y-95555000D02*
X153175000Y-95555000D01*
X144920000Y-96190000D02*
X145555000Y-95555000D01*
X144920000Y-99365000D02*
X144920000Y-96190000D01*
X145555000Y-100000000D02*
X144920000Y-99365000D01*
D16*
G36*
X159264224Y-92362104D02*
X159488224Y-92511776D01*
X159637896Y-92735776D01*
X159696400Y-93029899D01*
X159696400Y-106970101D01*
X159637896Y-107264224D01*
X159488224Y-107488224D01*
X159264224Y-107637896D01*
X158970101Y-107696400D01*
X145029899Y-107696400D01*
X144735776Y-107637896D01*
X144511776Y-107488224D01*
X144362104Y-107264224D01*
X144303600Y-106970101D01*
X144303600Y-96190000D01*
X144437400Y-96190000D01*
X144437400Y-99365000D01*
X144474136Y-99549683D01*
X144578750Y-99706250D01*
X145213748Y-100341247D01*
X145213750Y-100341250D01*
X145320776Y-100412762D01*
X145370317Y-100445864D01*
X145555000Y-100482601D01*
X145555005Y-100482600D01*
X145638747Y-100482600D01*
X145660528Y-100515198D01*
X145839824Y-100635000D01*
X145660528Y-100754802D01*
X145638747Y-100787400D01*
X145555005Y-100787400D01*
X145555000Y-100787399D01*
X145370317Y-100824136D01*
X145213750Y-100928750D01*
X145213748Y-100928753D01*
X144578750Y-101563750D01*
X144474136Y-101720317D01*
X144437400Y-101905000D01*
X144437400Y-103175000D01*
X144474136Y-103359683D01*
X144578750Y-103516250D01*
X145213748Y-104151247D01*
X145213750Y-104151250D01*
X145370317Y-104255864D01*
X145555000Y-104292601D01*
X145555005Y-104292600D01*
X150635000Y-104292600D01*
X150819683Y-104255864D01*
X150976250Y-104151250D01*
X151611247Y-103516252D01*
X151611250Y-103516250D01*
X151715864Y-103359683D01*
X151745014Y-103213139D01*
X151752601Y-103175000D01*
X151752600Y-103174995D01*
X151752600Y-102540000D01*
X152710269Y-102540000D01*
X152792373Y-102952762D01*
X153026184Y-103302685D01*
X153376107Y-103536496D01*
X153788869Y-103618600D01*
X153831131Y-103618600D01*
X154243893Y-103536496D01*
X154593816Y-103302685D01*
X154827627Y-102952762D01*
X154909731Y-102540000D01*
X154827627Y-102127238D01*
X154593816Y-101777315D01*
X154463140Y-101690000D01*
X155266922Y-101690000D01*
X155266922Y-103390000D01*
X155282862Y-103474714D01*
X155332928Y-103552518D01*
X155409320Y-103604715D01*
X155500000Y-103623078D01*
X157200000Y-103623078D01*
X157284714Y-103607138D01*
X157362518Y-103557072D01*
X157414715Y-103480680D01*
X157433078Y-103390000D01*
X157433078Y-101690000D01*
X157417138Y-101605286D01*
X157367072Y-101527482D01*
X157290680Y-101475285D01*
X157200000Y-101456922D01*
X155500000Y-101456922D01*
X155415286Y-101472862D01*
X155337482Y-101522928D01*
X155285285Y-101599320D01*
X155266922Y-101690000D01*
X154463140Y-101690000D01*
X154243893Y-101543504D01*
X153831131Y-101461400D01*
X153788869Y-101461400D01*
X153376107Y-101543504D01*
X153026184Y-101777315D01*
X152792373Y-102127238D01*
X152710269Y-102540000D01*
X151752600Y-102540000D01*
X151752600Y-100834900D01*
X152104899Y-100482600D01*
X152839037Y-100482600D01*
X153026184Y-100762685D01*
X153376107Y-100996496D01*
X153788869Y-101078600D01*
X153831131Y-101078600D01*
X154243893Y-100996496D01*
X154593816Y-100762685D01*
X154827627Y-100412762D01*
X154909731Y-100000000D01*
X155250269Y-100000000D01*
X155332373Y-100412762D01*
X155566184Y-100762685D01*
X155916107Y-100996496D01*
X156328869Y-101078600D01*
X156371131Y-101078600D01*
X156783893Y-100996496D01*
X157133816Y-100762685D01*
X157367627Y-100412762D01*
X157449731Y-100000000D01*
X157367627Y-99587238D01*
X157133816Y-99237315D01*
X156783893Y-99003504D01*
X156371131Y-98921400D01*
X156328869Y-98921400D01*
X155916107Y-99003504D01*
X155566184Y-99237315D01*
X155332373Y-99587238D01*
X155250269Y-100000000D01*
X154909731Y-100000000D01*
X154827627Y-99587238D01*
X154593816Y-99237315D01*
X154243893Y-99003504D01*
X153831131Y-98921400D01*
X153788869Y-98921400D01*
X153376107Y-99003504D01*
X153026184Y-99237315D01*
X152839037Y-99517400D01*
X151905005Y-99517400D01*
X151905000Y-99517399D01*
X151720317Y-99554136D01*
X151563750Y-99658750D01*
X151563748Y-99658753D01*
X150928750Y-100293750D01*
X150824136Y-100450317D01*
X150787400Y-100635000D01*
X150787400Y-102975101D01*
X150435100Y-103327400D01*
X145754899Y-103327400D01*
X145402600Y-102975100D01*
X145402600Y-102104900D01*
X145697558Y-101809941D01*
X145839824Y-101905000D01*
X145660528Y-102024802D01*
X145502587Y-102261177D01*
X145447126Y-102540000D01*
X145502587Y-102818823D01*
X145660528Y-103055198D01*
X145896903Y-103213139D01*
X146175726Y-103268600D01*
X146204274Y-103268600D01*
X146483097Y-103213139D01*
X146719472Y-103055198D01*
X146727516Y-103043159D01*
X146742862Y-103124714D01*
X146792928Y-103202518D01*
X146869320Y-103254715D01*
X146960000Y-103273078D01*
X147960000Y-103273078D01*
X148044714Y-103257138D01*
X148122518Y-103207072D01*
X148174715Y-103130680D01*
X148193078Y-103040000D01*
X148193078Y-102040000D01*
X148177138Y-101955286D01*
X148127072Y-101877482D01*
X148050680Y-101825285D01*
X147960000Y-101806922D01*
X146960000Y-101806922D01*
X146875286Y-101822862D01*
X146797482Y-101872928D01*
X146745285Y-101949320D01*
X146727551Y-102036893D01*
X146719472Y-102024802D01*
X146540176Y-101905000D01*
X146719472Y-101785198D01*
X146877413Y-101548823D01*
X146932874Y-101270000D01*
X146877413Y-100991177D01*
X146719472Y-100754802D01*
X146540176Y-100635000D01*
X146719472Y-100515198D01*
X146877413Y-100278823D01*
X146932874Y-100000000D01*
X146877413Y-99721177D01*
X146719472Y-99484802D01*
X146540176Y-99365000D01*
X146719472Y-99245198D01*
X146825000Y-99087264D01*
X146930528Y-99245198D01*
X147166903Y-99403139D01*
X147445726Y-99458600D01*
X147474274Y-99458600D01*
X147753097Y-99403139D01*
X147989472Y-99245198D01*
X148147413Y-99008823D01*
X148202874Y-98730000D01*
X148147413Y-98451177D01*
X147989472Y-98214802D01*
X147810176Y-98095000D01*
X147989472Y-97975198D01*
X148147413Y-97738823D01*
X148202874Y-97460000D01*
X148147413Y-97181177D01*
X147989472Y-96944802D01*
X147753097Y-96786861D01*
X147474274Y-96731400D01*
X147445726Y-96731400D01*
X147166903Y-96786861D01*
X146930528Y-96944802D01*
X146825000Y-97102736D01*
X146719472Y-96944802D01*
X146483097Y-96786861D01*
X146204274Y-96731400D01*
X146175726Y-96731400D01*
X145896903Y-96786861D01*
X145660528Y-96944802D01*
X145502587Y-97181177D01*
X145447126Y-97460000D01*
X145502587Y-97738823D01*
X145660528Y-97975198D01*
X145839824Y-98095000D01*
X145660528Y-98214802D01*
X145502587Y-98451177D01*
X145447126Y-98730000D01*
X145502587Y-99008823D01*
X145660528Y-99245198D01*
X145839824Y-99365000D01*
X145697558Y-99460059D01*
X145402600Y-99165100D01*
X145402600Y-96389900D01*
X145754899Y-96037600D01*
X152975100Y-96037600D01*
X153327400Y-96389899D01*
X153327400Y-96496049D01*
X153026184Y-96697315D01*
X152792373Y-97047238D01*
X152710269Y-97460000D01*
X152792373Y-97872762D01*
X153026184Y-98222685D01*
X153376107Y-98456496D01*
X153788869Y-98538600D01*
X153831131Y-98538600D01*
X154243893Y-98456496D01*
X154593816Y-98222685D01*
X154827627Y-97872762D01*
X154909731Y-97460000D01*
X154827627Y-97047238D01*
X154593816Y-96697315D01*
X154292600Y-96496049D01*
X154292600Y-96190005D01*
X154292601Y-96190000D01*
X154255864Y-96005317D01*
X154182988Y-95896250D01*
X154151250Y-95848750D01*
X154151247Y-95848748D01*
X153516250Y-95213750D01*
X153359683Y-95109136D01*
X153175000Y-95072400D01*
X145555005Y-95072400D01*
X145555000Y-95072399D01*
X145370317Y-95109136D01*
X145213750Y-95213750D01*
X145213748Y-95213753D01*
X144578750Y-95848750D01*
X144474136Y-96005317D01*
X144437400Y-96190000D01*
X144303600Y-96190000D01*
X144303600Y-93029899D01*
X144362104Y-92735776D01*
X144511776Y-92511776D01*
X144735776Y-92362104D01*
X145029899Y-92303600D01*
X158970101Y-92303600D01*
X159264224Y-92362104D01*
X159264224Y-92362104D01*
G37*
X159264224Y-92362104D02*
X159488224Y-92511776D01*
X159637896Y-92735776D01*
X159696400Y-93029899D01*
X159696400Y-106970101D01*
X159637896Y-107264224D01*
X159488224Y-107488224D01*
X159264224Y-107637896D01*
X158970101Y-107696400D01*
X145029899Y-107696400D01*
X144735776Y-107637896D01*
X144511776Y-107488224D01*
X144362104Y-107264224D01*
X144303600Y-106970101D01*
X144303600Y-96190000D01*
X144437400Y-96190000D01*
X144437400Y-99365000D01*
X144474136Y-99549683D01*
X144578750Y-99706250D01*
X145213748Y-100341247D01*
X145213750Y-100341250D01*
X145320776Y-100412762D01*
X145370317Y-100445864D01*
X145555000Y-100482601D01*
X145555005Y-100482600D01*
X145638747Y-100482600D01*
X145660528Y-100515198D01*
X145839824Y-100635000D01*
X145660528Y-100754802D01*
X145638747Y-100787400D01*
X145555005Y-100787400D01*
X145555000Y-100787399D01*
X145370317Y-100824136D01*
X145213750Y-100928750D01*
X145213748Y-100928753D01*
X144578750Y-101563750D01*
X144474136Y-101720317D01*
X144437400Y-101905000D01*
X144437400Y-103175000D01*
X144474136Y-103359683D01*
X144578750Y-103516250D01*
X145213748Y-104151247D01*
X145213750Y-104151250D01*
X145370317Y-104255864D01*
X145555000Y-104292601D01*
X145555005Y-104292600D01*
X150635000Y-104292600D01*
X150819683Y-104255864D01*
X150976250Y-104151250D01*
X151611247Y-103516252D01*
X151611250Y-103516250D01*
X151715864Y-103359683D01*
X151745014Y-103213139D01*
X151752601Y-103175000D01*
X151752600Y-103174995D01*
X151752600Y-102540000D01*
X152710269Y-102540000D01*
X152792373Y-102952762D01*
X153026184Y-103302685D01*
X153376107Y-103536496D01*
X153788869Y-103618600D01*
X153831131Y-103618600D01*
X154243893Y-103536496D01*
X154593816Y-103302685D01*
X154827627Y-102952762D01*
X154909731Y-102540000D01*
X154827627Y-102127238D01*
X154593816Y-101777315D01*
X154463140Y-101690000D01*
X155266922Y-101690000D01*
X155266922Y-103390000D01*
X155282862Y-103474714D01*
X155332928Y-103552518D01*
X155409320Y-103604715D01*
X155500000Y-103623078D01*
X157200000Y-103623078D01*
X157284714Y-103607138D01*
X157362518Y-103557072D01*
X157414715Y-103480680D01*
X157433078Y-103390000D01*
X157433078Y-101690000D01*
X157417138Y-101605286D01*
X157367072Y-101527482D01*
X157290680Y-101475285D01*
X157200000Y-101456922D01*
X155500000Y-101456922D01*
X155415286Y-101472862D01*
X155337482Y-101522928D01*
X155285285Y-101599320D01*
X155266922Y-101690000D01*
X154463140Y-101690000D01*
X154243893Y-101543504D01*
X153831131Y-101461400D01*
X153788869Y-101461400D01*
X153376107Y-101543504D01*
X153026184Y-101777315D01*
X152792373Y-102127238D01*
X152710269Y-102540000D01*
X151752600Y-102540000D01*
X151752600Y-100834900D01*
X152104899Y-100482600D01*
X152839037Y-100482600D01*
X153026184Y-100762685D01*
X153376107Y-100996496D01*
X153788869Y-101078600D01*
X153831131Y-101078600D01*
X154243893Y-100996496D01*
X154593816Y-100762685D01*
X154827627Y-100412762D01*
X154909731Y-100000000D01*
X155250269Y-100000000D01*
X155332373Y-100412762D01*
X155566184Y-100762685D01*
X155916107Y-100996496D01*
X156328869Y-101078600D01*
X156371131Y-101078600D01*
X156783893Y-100996496D01*
X157133816Y-100762685D01*
X157367627Y-100412762D01*
X157449731Y-100000000D01*
X157367627Y-99587238D01*
X157133816Y-99237315D01*
X156783893Y-99003504D01*
X156371131Y-98921400D01*
X156328869Y-98921400D01*
X155916107Y-99003504D01*
X155566184Y-99237315D01*
X155332373Y-99587238D01*
X155250269Y-100000000D01*
X154909731Y-100000000D01*
X154827627Y-99587238D01*
X154593816Y-99237315D01*
X154243893Y-99003504D01*
X153831131Y-98921400D01*
X153788869Y-98921400D01*
X153376107Y-99003504D01*
X153026184Y-99237315D01*
X152839037Y-99517400D01*
X151905005Y-99517400D01*
X151905000Y-99517399D01*
X151720317Y-99554136D01*
X151563750Y-99658750D01*
X151563748Y-99658753D01*
X150928750Y-100293750D01*
X150824136Y-100450317D01*
X150787400Y-100635000D01*
X150787400Y-102975101D01*
X150435100Y-103327400D01*
X145754899Y-103327400D01*
X145402600Y-102975100D01*
X145402600Y-102104900D01*
X145697558Y-101809941D01*
X145839824Y-101905000D01*
X145660528Y-102024802D01*
X145502587Y-102261177D01*
X145447126Y-102540000D01*
X145502587Y-102818823D01*
X145660528Y-103055198D01*
X145896903Y-103213139D01*
X146175726Y-103268600D01*
X146204274Y-103268600D01*
X146483097Y-103213139D01*
X146719472Y-103055198D01*
X146727516Y-103043159D01*
X146742862Y-103124714D01*
X146792928Y-103202518D01*
X146869320Y-103254715D01*
X146960000Y-103273078D01*
X147960000Y-103273078D01*
X148044714Y-103257138D01*
X148122518Y-103207072D01*
X148174715Y-103130680D01*
X148193078Y-103040000D01*
X148193078Y-102040000D01*
X148177138Y-101955286D01*
X148127072Y-101877482D01*
X148050680Y-101825285D01*
X147960000Y-101806922D01*
X146960000Y-101806922D01*
X146875286Y-101822862D01*
X146797482Y-101872928D01*
X146745285Y-101949320D01*
X146727551Y-102036893D01*
X146719472Y-102024802D01*
X146540176Y-101905000D01*
X146719472Y-101785198D01*
X146877413Y-101548823D01*
X146932874Y-101270000D01*
X146877413Y-100991177D01*
X146719472Y-100754802D01*
X146540176Y-100635000D01*
X146719472Y-100515198D01*
X146877413Y-100278823D01*
X146932874Y-100000000D01*
X146877413Y-99721177D01*
X146719472Y-99484802D01*
X146540176Y-99365000D01*
X146719472Y-99245198D01*
X146825000Y-99087264D01*
X146930528Y-99245198D01*
X147166903Y-99403139D01*
X147445726Y-99458600D01*
X147474274Y-99458600D01*
X147753097Y-99403139D01*
X147989472Y-99245198D01*
X148147413Y-99008823D01*
X148202874Y-98730000D01*
X148147413Y-98451177D01*
X147989472Y-98214802D01*
X147810176Y-98095000D01*
X147989472Y-97975198D01*
X148147413Y-97738823D01*
X148202874Y-97460000D01*
X148147413Y-97181177D01*
X147989472Y-96944802D01*
X147753097Y-96786861D01*
X147474274Y-96731400D01*
X147445726Y-96731400D01*
X147166903Y-96786861D01*
X146930528Y-96944802D01*
X146825000Y-97102736D01*
X146719472Y-96944802D01*
X146483097Y-96786861D01*
X146204274Y-96731400D01*
X146175726Y-96731400D01*
X145896903Y-96786861D01*
X145660528Y-96944802D01*
X145502587Y-97181177D01*
X145447126Y-97460000D01*
X145502587Y-97738823D01*
X145660528Y-97975198D01*
X145839824Y-98095000D01*
X145660528Y-98214802D01*
X145502587Y-98451177D01*
X145447126Y-98730000D01*
X145502587Y-99008823D01*
X145660528Y-99245198D01*
X145839824Y-99365000D01*
X145697558Y-99460059D01*
X145402600Y-99165100D01*
X145402600Y-96389900D01*
X145754899Y-96037600D01*
X152975100Y-96037600D01*
X153327400Y-96389899D01*
X153327400Y-96496049D01*
X153026184Y-96697315D01*
X152792373Y-97047238D01*
X152710269Y-97460000D01*
X152792373Y-97872762D01*
X153026184Y-98222685D01*
X153376107Y-98456496D01*
X153788869Y-98538600D01*
X153831131Y-98538600D01*
X154243893Y-98456496D01*
X154593816Y-98222685D01*
X154827627Y-97872762D01*
X154909731Y-97460000D01*
X154827627Y-97047238D01*
X154593816Y-96697315D01*
X154292600Y-96496049D01*
X154292600Y-96190005D01*
X154292601Y-96190000D01*
X154255864Y-96005317D01*
X154182988Y-95896250D01*
X154151250Y-95848750D01*
X154151247Y-95848748D01*
X153516250Y-95213750D01*
X153359683Y-95109136D01*
X153175000Y-95072400D01*
X145555005Y-95072400D01*
X145555000Y-95072399D01*
X145370317Y-95109136D01*
X145213750Y-95213750D01*
X145213748Y-95213753D01*
X144578750Y-95848750D01*
X144474136Y-96005317D01*
X144437400Y-96190000D01*
X144303600Y-96190000D01*
X144303600Y-93029899D01*
X144362104Y-92735776D01*
X144511776Y-92511776D01*
X144735776Y-92362104D01*
X145029899Y-92303600D01*
X158970101Y-92303600D01*
X159264224Y-92362104D01*
M02*
